<svg width="144" height="74" viewBox="0 0 144 74" fill="none" xmlns="http://www.w3.org/2000/svg">
<path d="M12.9838 8.23376H16.1039V26.6526C16.1039 28.2965 15.8019 29.693 15.1981 30.8421C14.5942 31.9912 13.7428 32.8635 12.6441 33.459C11.5453 34.0545 10.2495 34.3523 8.75649 34.3523C7.3474 34.3523 6.09348 34.0965 4.99472 33.5848C3.89597 33.0648 3.03206 32.3267 2.403 31.3705C1.77394 30.4144 1.45942 29.2779 1.45942 27.961H4.52922C4.52922 28.6907 4.70955 29.3282 5.07021 29.8734C5.43926 30.4102 5.94251 30.8295 6.57995 31.1315C7.2174 31.4334 7.94291 31.5844 8.75649 31.5844C9.65395 31.5844 10.4172 31.3957 11.0463 31.0183C11.6753 30.6408 12.1534 30.0873 12.4805 29.3575C12.816 28.6195 12.9838 27.7178 12.9838 26.6526V8.23376ZM39.2658 8.23376H42.386V25.2938C42.386 27.0552 41.9708 28.6278 41.1404 30.0118C40.3185 31.3873 39.1568 32.4735 37.6554 33.2703C36.1541 34.0587 34.3927 34.4529 32.3714 34.4529C30.35 34.4529 28.5886 34.0587 27.0873 33.2703C25.5859 32.4735 24.4201 31.3873 23.5897 30.0118C22.7677 28.6278 22.3567 27.0552 22.3567 25.2938V8.23376H25.4769V25.0422C25.4769 26.3003 25.7537 27.42 26.3072 28.4014C26.8608 29.3743 27.6492 30.1418 28.6725 30.7037C29.7041 31.2573 30.9371 31.5341 32.3714 31.5341C33.8056 31.5341 35.0386 31.2573 36.0702 30.7037C37.1019 30.1418 37.8903 29.3743 38.4355 28.4014C38.989 27.42 39.2658 26.3003 39.2658 25.0422V8.23376ZM62.7077 14.6753C62.5567 13.4004 61.9444 12.4107 60.8708 11.7062C59.7973 11.0016 58.4804 10.6493 56.9204 10.6493C55.7797 10.6493 54.7816 10.8339 53.926 11.2029C53.0789 11.572 52.4163 12.0794 51.9382 12.7252C51.4685 13.3711 51.2337 14.105 51.2337 14.9269C51.2337 15.6147 51.3972 16.206 51.7243 16.7009C52.0598 17.1874 52.4876 17.5942 53.0076 17.9213C53.5276 18.24 54.0728 18.5042 54.6432 18.7139C55.2135 18.9152 55.7377 19.0787 56.2158 19.2045L58.8327 19.9091C59.5037 20.0852 60.2502 20.3285 61.0721 20.6388C61.9025 20.9491 62.6951 21.3727 63.45 21.9095C64.2132 22.4379 64.8423 23.1173 65.3372 23.9476C65.832 24.778 66.0794 25.7971 66.0794 27.0049C66.0794 28.3972 65.7146 29.6553 64.9849 30.7792C64.2636 31.9031 63.2067 32.7964 61.8144 33.459C60.4305 34.1216 58.7488 34.4529 56.7694 34.4529C54.9241 34.4529 53.3263 34.1552 51.976 33.5597C50.634 32.9642 49.5771 32.1338 48.8055 31.0686C48.0422 30.0034 47.6103 28.7662 47.5096 27.3571H50.7304C50.8143 28.3301 51.1414 29.1353 51.7118 29.7727C52.2905 30.4018 53.0202 30.8715 53.9009 31.1818C54.7899 31.4838 55.7461 31.6347 56.7694 31.6347C57.9604 31.6347 59.0298 31.4418 59.9776 31.056C60.9254 30.6618 61.676 30.1166 62.2296 29.4205C62.7832 28.7159 63.06 27.8939 63.06 26.9545C63.06 26.099 62.8209 25.4029 62.3428 24.8661C61.8648 24.3293 61.2357 23.8931 60.4557 23.5576C59.6756 23.2221 58.8327 22.9286 57.9269 22.6769L54.7564 21.7711C52.7434 21.1924 51.1498 20.3662 49.9756 19.2926C48.8013 18.219 48.2142 16.8141 48.2142 15.0779C48.2142 13.6353 48.6042 12.3772 49.3842 11.3036C50.1727 10.2216 51.2295 9.38284 52.5547 8.78734C53.8883 8.18344 55.3771 7.88149 57.021 7.88149C58.6817 7.88149 60.1579 8.17925 61.4496 8.77475C62.7412 9.36187 63.7645 10.1671 64.5194 11.1903C65.2826 12.2136 65.6852 13.3753 65.7272 14.6753H62.7077ZM69.8003 11.0016V8.23376H89.125V11.0016H81.0227V34H77.9026V11.0016H69.8003Z" fill="#0D0D0D"/>
<path d="M3.17045 68.9524L3.17045 42.7706H12.3239C14.1477 42.7706 15.652 43.0859 16.8366 43.7166C18.0213 44.3388 18.9034 45.1782 19.483 46.2351C20.0625 47.2834 20.3523 48.4467 20.3523 49.7251C20.3523 50.8501 20.152 51.7791 19.7514 52.5121C19.3594 53.245 18.8395 53.8246 18.1918 54.2507C17.5526 54.6768 16.858 54.9922 16.108 55.1967V55.4524C16.9091 55.5035 17.7145 55.7848 18.5241 56.2961C19.3338 56.8075 20.0114 57.5405 20.5568 58.495C21.1023 59.4496 21.375 60.6172 21.375 61.9978C21.375 63.3103 21.0767 64.4907 20.4801 65.539C19.8835 66.5873 18.9418 67.4183 17.6548 68.0319C16.3679 68.6456 14.6932 68.9524 12.6307 68.9524H3.17045ZM6.34091 66.1399H12.6307C14.7017 66.1399 16.1719 65.7393 17.0412 64.9382C17.919 64.1285 18.358 63.1484 18.358 61.9978C18.358 61.1115 18.1321 60.2933 17.6804 59.5433C17.2287 58.7848 16.5852 58.1797 15.75 57.728C14.9148 57.2677 13.9261 57.0376 12.7841 57.0376H6.34091L6.34091 66.1399ZM6.34091 54.2763H12.2216C13.1761 54.2763 14.0369 54.0888 14.804 53.7138C15.5795 53.3388 16.1932 52.8103 16.6449 52.1285C17.1051 51.4467 17.3352 50.6456 17.3352 49.7251C17.3352 48.5746 16.9347 47.5987 16.1335 46.7976C15.3324 45.9879 14.0625 45.5831 12.3239 45.5831H6.34091V54.2763ZM43.7663 42.7706H46.9368V60.1058C46.9368 61.8956 46.5149 63.4936 45.6712 64.8998C44.8359 66.2976 43.6555 67.4013 42.13 68.2109C40.6044 69.0121 38.8146 69.4126 36.7607 69.4126C34.7067 69.4126 32.9169 69.0121 31.3913 68.2109C29.8658 67.4013 28.6811 66.2976 27.8374 64.8998C27.0021 63.4936 26.5845 61.8956 26.5845 60.1058V42.7706H29.755V59.8501C29.755 61.1285 30.0362 62.2663 30.5987 63.2635C31.1612 64.2521 31.9624 65.0319 33.0021 65.603C34.0504 66.1655 35.3033 66.4467 36.7607 66.4467C38.218 66.4467 39.4709 66.1655 40.5192 65.603C41.5675 65.0319 42.3686 64.2521 42.9226 63.2635C43.4851 62.2663 43.7663 61.1285 43.7663 59.8501V42.7706ZM51.0181 42.7706H54.6488L61.9102 54.9922H62.217L69.4783 42.7706H73.109L63.6488 58.1626V68.9524H60.4783V58.1626L51.0181 42.7706Z" fill="#7EB3E8"/>
<path d="M102 25L108 17H132L138 25M102 25V53C102 54.0609 102.421 55.0783 103.172 55.8284C103.922 56.5786 104.939 57 106 57H134C135.061 57 136.078 56.5786 136.828 55.8284C137.579 55.0783 138 54.0609 138 53V25M102 25H138M128 33C128 35.1217 127.157 37.1566 125.657 38.6569C124.157 40.1571 122.122 41 120 41C117.878 41 115.843 40.1571 114.343 38.6569C112.843 37.1566 112 35.1217 112 33" stroke="#0D0D0D" stroke-width="4.92064" stroke-linecap="round" stroke-linejoin="round"/>
</svg>
